<?xml version="1.0" encoding="UTF-8"?>
<!-- Generated by Pixelmator Pro 3.1.1 -->
<svg width="531" height="200" viewBox="0 0 531 200" xmlns="http://www.w3.org/2000/svg" xmlns:xlink="http://www.w3.org/1999/xlink">
    <path id="Path" fill="none" stroke="#f7105c" stroke-width="23" stroke-linecap="round" stroke-linejoin="round" d="M 11.465286 182.805298 C 11.465286 182.805298 153.092194 23.379517 65.735016 13.026611 C -56.905052 -1.507751 107.558762 188.377075 107.558762 188.377075"/>
    <path id="LOGO" fill="#000000" fill-rule="evenodd" stroke="none" d="M 445.735992 51.044006 C 445.735992 43.905945 446.980988 37.598022 449.471008 32.119995 C 451.960999 26.641968 455.280975 22.077026 459.431 18.424988 C 463.415009 14.938965 467.938477 12.28302 473.001495 10.45697 C 478.064514 8.630981 483.168976 7.718018 488.315002 7.718018 C 493.461029 7.718018 498.565491 8.630981 503.628479 10.45697 C 508.691528 12.28302 513.297974 14.938965 517.447998 18.424988 C 521.432007 22.077026 524.669006 26.641968 527.158997 32.119995 C 529.648987 37.598022 530.893982 43.905945 530.893982 51.044006 L 530.893982 144.66803 C 530.893982 152.138062 529.648987 158.528992 527.158997 163.841003 C 524.669006 169.153015 521.432007 173.552002 517.447998 177.038025 C 513.297974 180.690002 508.691528 183.429016 503.628479 185.255005 C 498.565491 187.080994 493.461029 187.994019 488.315002 187.994019 C 483.168976 187.994019 478.064514 187.080994 473.001495 185.255005 C 467.938477 183.429016 463.415009 180.690002 459.431 177.038025 C 455.280975 173.552002 451.960999 169.153015 449.471008 163.841003 C 446.980988 158.528992 445.735992 152.138062 445.735992 144.66803 Z M 471.134003 144.66803 C 471.134003 150.810059 472.83548 155.333496 476.238495 158.238525 C 479.64151 161.143494 483.666962 162.596008 488.315002 162.596008 C 492.963013 162.596008 496.988464 161.143494 500.391479 158.238525 C 503.794495 155.333496 505.495972 150.810059 505.495972 144.66803 L 505.495972 51.044006 C 505.495972 44.901978 503.794495 40.37854 500.391479 37.473511 C 496.988464 34.568481 492.963013 33.116028 488.315002 33.116028 C 483.666962 33.116028 479.64151 34.568481 476.238495 37.473511 C 472.83548 40.37854 471.134003 44.901978 471.134003 51.044006 Z M 339.661987 51.044006 C 339.661987 43.905945 340.906982 37.598022 343.397003 32.119995 C 345.887024 26.641968 349.20697 22.077026 353.356995 18.424988 C 357.341034 14.938965 361.864471 12.28302 366.92749 10.45697 C 371.99054 8.630981 377.094971 7.718018 382.240997 7.718018 C 387.387024 7.718018 392.491486 8.630981 397.554504 10.45697 C 402.617523 12.28302 407.223969 14.938965 411.373993 18.424988 C 415.358032 22.077026 418.595001 26.641968 421.084991 32.119995 C 423.575012 37.598022 424.820007 43.905945 424.820007 51.044006 L 424.820007 60.007996 L 399.421997 60.007996 L 399.421997 51.044006 C 399.421997 44.901978 397.72052 40.37854 394.317505 37.473511 C 390.91449 34.568481 386.889038 33.116028 382.240997 33.116028 C 377.592987 33.116028 373.567505 34.568481 370.16449 37.473511 C 366.761475 40.37854 365.059998 44.901978 365.059998 51.044006 L 365.059998 144.66803 C 365.059998 150.810059 366.761475 155.333496 370.16449 158.238525 C 373.567505 161.143494 377.592987 162.596008 382.240997 162.596008 C 386.889038 162.596008 390.91449 161.143494 394.317505 158.238525 C 397.72052 155.333496 399.421997 150.810059 399.421997 144.66803 L 399.421997 111.302002 L 379.252991 111.302002 L 379.252991 88.892029 L 424.820007 88.892029 L 424.820007 144.66803 C 424.820007 152.138062 423.575012 158.528992 421.084991 163.841003 C 418.595001 169.153015 415.358032 173.552002 411.373993 177.038025 C 407.223969 180.690002 402.617523 183.429016 397.554504 185.255005 C 392.491486 187.080994 387.387024 187.994019 382.240997 187.994019 C 377.094971 187.994019 371.99054 187.080994 366.92749 185.255005 C 361.864471 183.429016 357.341034 180.690002 353.356995 177.038025 C 349.20697 173.552002 345.887024 169.153015 343.397003 163.841003 C 340.906982 158.528992 339.661987 152.138062 339.661987 144.66803 Z M 233.587997 51.044006 C 233.587997 43.905945 234.832993 37.598022 237.322998 32.119995 C 239.813019 26.641968 243.132965 22.077026 247.28299 18.424988 C 251.267029 14.938965 255.790466 12.28302 260.853485 10.45697 C 265.916534 8.630981 271.020966 7.718018 276.166992 7.718018 C 281.313019 7.718018 286.41748 8.630981 291.480499 10.45697 C 296.543518 12.28302 301.149994 14.938965 305.299988 18.424988 C 309.284027 22.077026 312.520996 26.641968 315.010986 32.119995 C 317.501007 37.598022 318.746002 43.905945 318.746002 51.044006 L 318.746002 144.66803 C 318.746002 152.138062 317.501007 158.528992 315.010986 163.841003 C 312.520996 169.153015 309.284027 173.552002 305.299988 177.038025 C 301.149994 180.690002 296.543518 183.429016 291.480499 185.255005 C 286.41748 187.080994 281.313019 187.994019 276.166992 187.994019 C 271.020966 187.994019 265.916534 187.080994 260.853485 185.255005 C 255.790466 183.429016 251.267029 180.690002 247.28299 177.038025 C 243.132965 173.552002 239.813019 169.153015 237.322998 163.841003 C 234.832993 158.528992 233.587997 152.138062 233.587997 144.66803 Z M 258.985992 144.66803 C 258.985992 150.810059 260.687469 155.333496 264.090515 158.238525 C 267.49353 161.143494 271.518982 162.596008 276.166992 162.596008 C 280.815033 162.596008 284.840485 161.143494 288.2435 158.238525 C 291.646515 155.333496 293.347992 150.810059 293.347992 144.66803 L 293.347992 51.044006 C 293.347992 44.901978 291.646515 40.37854 288.2435 37.473511 C 284.840485 34.568481 280.815033 33.116028 276.166992 33.116028 C 271.518982 33.116028 267.49353 34.568481 264.090515 37.473511 C 260.687469 40.37854 258.985992 44.901978 258.985992 51.044006 Z M 142.951996 186.5 L 142.951996 9.211975 L 168.350006 9.211975 L 168.350006 161.10199 L 218.647995 161.10199 L 218.647995 186.5 Z"/>
</svg>
